<svg width="1920" height="1080" viewBox="0 0 1920 1080" fill="none" xmlns="http://www.w3.org/2000/svg">
<rect width="1920" height="1080" fill="#F5F5F5"/>
<rect width="1920" height="1080" fill="url(#paint0_linear_0_1)"/>
<rect x="1244" y="44" width="632.102" height="997" rx="14" fill="#25CBFF" fill-opacity="0.84"/>
<rect x="1270.73" y="130.009" width="586.502" height="896.949" rx="15" fill="#40526F"/>
<rect x="34.1495" y="247.688" width="491.753" height="388.061" rx="14" fill="#25CBFF" fill-opacity="0.84"/>
<path d="M548.669 264.444C548.669 256.16 555.385 249.444 563.669 249.444H1203C1211.28 249.444 1218 256.16 1218 264.444V620.749C1218 629.033 1211.28 635.749 1203 635.749H881.058H563.669C555.385 635.749 548.669 629.033 548.669 620.749V264.444Z" fill="#40526F"/>
<rect x="548.669" y="655.064" width="669.331" height="386.305" rx="15" fill="#40526F"/>
<rect x="34.1495" y="44" width="1183.85" height="173.837" rx="15" fill="#40526F"/>
<path d="M525.403 681.903V1079.5H0.5V681.903H274.335H525.403Z" stroke="#2EC3F2"/>
<path d="M882.182 118.857C889.727 118.857 895.773 109.286 895.773 97.4286C895.773 85.5714 889.727 76 882.182 76C874.636 76 868.545 85.5714 868.545 97.4286C868.545 109.286 874.636 118.857 882.182 118.857ZM845.818 118.857C853.364 118.857 859.409 109.286 859.409 97.4286C859.409 85.5714 853.364 76 845.818 76C838.273 76 832.182 85.5714 832.182 97.4286C832.182 109.286 838.273 118.857 845.818 118.857ZM845.818 133.143C835.227 133.143 814 141.5 814 158.143V176H877.636V158.143C877.636 141.5 856.409 133.143 845.818 133.143ZM882.182 133.143C880.864 133.143 879.364 133.286 877.773 133.5C883.045 139.5 886.727 147.571 886.727 158.143V176H914V158.143C914 141.5 892.773 133.143 882.182 133.143Z" fill="black"/>
<path d="M522.906 76C525.602 76.0002 528.207 76.9664 530.243 78.7209C532.278 80.4754 533.608 82.9003 533.986 85.55L534.081 86.4167L538.978 164.194C539.163 167.113 538.181 169.986 536.247 172.191C534.312 174.396 531.579 175.754 528.642 175.972L527.803 176H450.192C447.247 176 444.42 174.848 442.325 172.793C440.23 170.738 439.035 167.946 439 165.022L439.017 164.194L443.913 86.4167C444.082 83.7448 445.216 81.2232 447.108 79.3155C449 77.4078 451.522 76.2423 454.21 76.0333L455.083 76H522.906ZM505.783 98.2222C504.412 98.2224 503.089 98.722 502.065 99.6262C501.04 100.53 500.386 101.776 500.226 103.128L500.187 103.778C500.187 106.725 499.007 109.551 496.908 111.635C494.81 113.718 491.963 114.889 488.995 114.889C486.026 114.889 483.18 113.718 481.081 111.635C478.982 109.551 477.803 106.725 477.803 103.778C477.803 102.304 477.213 100.891 476.164 99.8494C475.114 98.8075 473.691 98.2222 472.207 98.2222C470.722 98.2222 469.299 98.8075 468.25 99.8494C467.2 100.891 466.611 102.304 466.611 103.778C466.611 109.671 468.969 115.324 473.167 119.491C477.365 123.659 483.058 126 488.995 126C494.931 126 500.625 123.659 504.822 119.491C509.02 115.324 511.379 109.671 511.379 103.778C511.379 102.304 510.789 100.891 509.739 99.8494C508.69 98.8075 507.267 98.2222 505.783 98.2222Z" fill="black"/>
<path d="M90.4615 166.909C90.4615 169.371 89.7003 171.502 88.1779 173.301C86.6554 175.1 84.8526 176 82.7692 176C80.6859 176 78.883 175.1 77.3606 173.301C75.8381 171.502 75.0769 169.371 75.0769 166.909C75.0769 164.447 75.8381 162.316 77.3606 160.517C78.883 158.718 80.6859 157.818 82.7692 157.818C84.8526 157.818 86.6554 158.718 88.1779 160.517C89.7003 162.316 90.4615 164.447 90.4615 166.909ZM144.308 166.909C144.308 169.371 143.546 171.502 142.024 173.301C140.502 175.1 138.699 176 136.615 176C134.532 176 132.729 175.1 131.207 173.301C129.684 171.502 128.923 169.371 128.923 166.909C128.923 164.447 129.684 162.316 131.207 160.517C132.729 158.718 134.532 157.818 136.615 157.818C138.699 157.818 140.502 158.718 142.024 160.517C143.546 162.316 144.308 164.447 144.308 166.909ZM152 89.6364V126C152 127.136 151.669 128.143 151.008 129.018C150.347 129.894 149.536 130.403 148.575 130.545L85.8341 139.21C86.355 142.051 86.6154 143.708 86.6154 144.182C86.6154 144.939 86.1346 146.455 85.1731 148.727H140.462C141.503 148.727 142.405 149.177 143.166 150.077C143.927 150.976 144.308 152.042 144.308 153.273C144.308 154.504 143.927 155.569 143.166 156.469C142.405 157.368 141.503 157.818 140.462 157.818H78.9231C77.8814 157.818 76.98 157.368 76.2187 156.469C75.4575 155.569 75.0769 154.504 75.0769 153.273C75.0769 152.752 75.2372 152.006 75.5577 151.036C75.8782 150.065 76.1987 149.213 76.5192 148.479C76.8397 147.745 77.2704 146.798 77.8113 145.638C78.3522 144.478 78.6627 143.779 78.7428 143.543L68.1058 85.0909H55.8462C54.8045 85.0909 53.903 84.6411 53.1418 83.7415C52.3806 82.8419 52 81.7765 52 80.5455C52 79.3144 52.3806 78.2491 53.1418 77.3494C53.903 76.4498 54.8045 76 55.8462 76H71.2308C71.8718 76 72.4427 76.1539 72.9435 76.4616C73.4443 76.7694 73.8349 77.1364 74.1154 77.5625C74.3958 77.9886 74.6562 78.5687 74.8966 79.3026C75.137 80.0365 75.2973 80.652 75.3774 81.1491C75.4575 81.6463 75.5677 82.3447 75.7079 83.2443C75.8482 84.1439 75.9383 84.7595 75.9784 85.0909H148.154C149.196 85.0909 150.097 85.5407 150.858 86.4403C151.619 87.34 152 88.4053 152 89.6364Z" fill="black"/>
<defs>
<linearGradient id="paint0_linear_0_1" x1="960" y1="0" x2="960" y2="1080" gradientUnits="userSpaceOnUse">
<stop stop-color="#232323"/>
<stop offset="1" stop-color="#A8ABAB" stop-opacity="0.98"/>
</linearGradient>
</defs>
</svg>
